<?xml version="1.0" encoding="utf-8"?>
<!-- Generator: Adobe Illustrator 24.1.2, SVG Export Plug-In . SVG Version: 6.00 Build 0)  -->
<svg version="1.1" id="Sandoval" xmlns="http://www.w3.org/2000/svg" xmlns:xlink="http://www.w3.org/1999/xlink" x="0px" y="0px"
	 width="260px" height="407.2px" viewBox="0 0 260 407.2" style="enable-background:new 0 0 260 407.2;" xml:space="preserve">
<g>
	<g>
		<path style="fill:#008D6C;" d="M259.5,393.5l-8.6,0.5c-3.1,0-5.3-1.1-6.6-3.2c-1.3-2.1-2-5.6-2-10.5c0-35.9,0.7-69.9,2.1-102
			c1.4-32.1,3-49.6,4.8-52.4l-1.5-3.2c-2.8,0.8-5.8,1.5-8.9,2.2l-1-26.2l-1-14.5c0,0-33.4-75.1-51.7-94.9
			C162.4,64.5,70.2,13,70.2,13s96.9,48.8,120.6,73.6c18.5,19.4,50.8,94.5,50.8,94.5s13.4-10.2,14.9-14.6c0.9-2.7-2.7-20.3-2.7-20.3
			l-8.3,19.5l-1.6-52.4c0,0-11.4-8-14.3-11.5c-7.6-8.9-23.2-41-23.2-41l-9.3,7.2l-1-14.5c0,0-60.9-39.2-85.6-46C85.3,0.6,0,0,0,0
			s52.2,44.4,75.1,49.4c9,2,32.9-3,32.9-3L69.2,58.9c0,0,32.2,38.5,47.2,44.4c12.8,5,48.4-1,48.4-1l-63.9,14.5
			c0,0,37.1,41.4,54.3,49.9c9.6,4.7,44.7,9.1,44.7,9.1l-37.2,2.3l36.4,13.1l-17.3,3.3c0,0,37,7.3,45.3,15.5
			c2.2,2.2,4.5,8.7,6.6,16.1c-6.8,1.4-14.2,2.7-22.1,3.8l-1,8.3l0.7,0.5c2.9-0.3,4.8-0.5,5.6-0.5c3.6,0,6,0.9,7.1,2.7
			c1.1,1.8,1.7,5.2,1.7,10.3v120.1c0,6.5-0.2,11.2-0.6,13.9c-0.4,2.8-1.6,5.1-3.4,7.1c-1.9,2-5.1,3.6-9.7,4.9l-1,10
			c11.3-2,19.7-2.9,25.2-2.9c3.8,0,11,0.2,21.8,0.7l2-10.5L259.5,393.5z"/>
	</g>
</g>
</svg>
