<?xml version="1.0" encoding="utf-8"?>
<!-- Generator: Adobe Illustrator 24.1.2, SVG Export Plug-In . SVG Version: 6.00 Build 0)  -->
<svg version="1.1" xmlns="http://www.w3.org/2000/svg" xmlns:xlink="http://www.w3.org/1999/xlink" x="0px" y="0px" width="800px"
	 height="436.3px" viewBox="0 0 800 436.3" style="enable-background:new 0 0 800 436.3;" xml:space="preserve">
<g id="Despacho">
	<g>
		<path style="fill:#00534C;" d="M272.6,59.9c-4.9-2.4-10.5-3.7-16.7-3.7c-1.1,0.1-3.2,0.1-6.2,0.2c-3,0.1-5.9,0.1-8.7,0.1
			c-2.1,0-4.1,0-6.2-0.1c-2-0.1-3.4-0.1-4.1-0.2l-0.7,4.3l0.2,0.4c0.3,0,0.7,0,1.4-0.1c0.7-0.1,1.3-0.1,2-0.1c1.4,0,2.4,0.4,2.9,1.1
			c0.5,0.7,0.7,2.1,0.7,4.2l-0.1,41c0,2.7-0.5,4.7-1.6,5.8c-1,1.1-3.1,2-6.1,2.6l-0.6,4.5c0.7-0.1,2.3-0.4,4.6-0.7
			c2.4-0.3,4.6-0.5,6.6-0.5c2.1,0,4.7,0.2,7.9,0.5c3.2,0.3,5.2,0.6,6.2,0.7c6.3,0,12-1.5,17.1-4.6c5.1-3.1,9.2-7.2,12.2-12.5
			c3-5.3,4.5-11.1,4.5-17.5c0-5.7-1.4-10.8-4.1-15.2C281.3,65.8,277.5,62.4,272.6,59.9z M273.1,107.8c-4,4.9-9.6,7.3-16.6,7.3
			c-3.4,0-5.9-0.3-7.7-0.8c-1.7-0.5-2.9-1.4-3.6-2.6c-0.7-1.2-1-3.1-1-5.6c0-3.5,0.5-17.8,1.5-42.9c0.1-0.8,0.3-1.4,0.8-1.7
			c0.5-0.3,1.4-0.4,2.7-0.4c9.6,0,17,2.3,22.2,6.9c5.2,4.6,7.8,11.2,7.8,19.8C279.1,96.3,277.1,102.9,273.1,107.8z"/>
		<path style="fill:#00534C;" d="M317,73.5c-3.8,0-7.3,1.1-10.6,3.4c-3.3,2.3-6,5.3-8,9.2c-2,3.8-3,7.9-3,12.3c0,4.2,0.8,8,2.5,11.3
			c1.7,3.3,4.1,5.8,7.2,7.6c3.1,1.8,6.7,2.7,10.7,2.7c2,0,4.3-0.7,7.2-2.1c2.8-1.4,5.4-2.9,7.8-4.6l-1.1-2.8l-0.6-0.2
			c-4.3,2-8.3,3-11.9,3c-4.6,0-8.2-1.7-10.8-5.1c-2.6-3.4-3.8-8.3-3.8-14.6h27l1.3-1.2c0.4-1.3,0.6-2.9,0.6-4.8
			c0-4.6-1.2-8.1-3.7-10.6C325.4,74.8,321.8,73.5,317,73.5z M322.8,88.5c-0.3,0.3-1,0.6-2,0.7l-17.7,0.9c0.6-3.5,2-6.3,4.2-8.4
			c2.2-2.1,4.8-3.1,7.9-3.1c2.6,0,4.6,0.7,6,2.1c1.4,1.4,2.1,3.4,2.1,6C323.3,87.5,323.1,88.2,322.8,88.5z"/>
		<path style="fill:#00534C;" d="M356.6,92.4c-3-1.6-5.2-3-6.5-4.4c-1.3-1.4-2-2.8-2-4.4c0-1.5,0.8-2.8,2.3-3.8
			c1.5-1,3.4-1.6,5.6-1.6c2.8,0,4.8,0.5,6.1,1.6c1.3,1.1,1.9,2.8,1.9,5.1c0,0.5,0,1.1-0.1,1.7c-0.1,0.6-0.1,1-0.1,1.2l3.6-0.3
			c0.2-2.7,0.5-5.2,1-7.5c0.5-2.3,0.7-3.8,0.9-4.4l-0.2-0.5c-0.3-0.1-0.8-0.2-1.8-0.5c-0.9-0.3-2.1-0.5-3.5-0.7
			c-1.4-0.2-2.9-0.3-4.5-0.3c-3.4,0-6.4,0.6-9.2,1.8c-2.7,1.2-4.9,2.9-6.4,5c-1.6,2.1-2.3,4.5-2.3,7.1c0,2.3,0.8,4.5,2.5,6.4
			c1.7,2,4.4,3.9,8.1,5.8c4.5,2.4,7.5,4.3,9,5.6c1.5,1.3,2.3,2.8,2.3,4.4c0,1.6-0.8,3-2.5,4.1c-1.7,1.1-3.8,1.7-6.3,1.7
			c-3.5,0-5.9-0.9-7.3-2.6c-1.4-1.8-2.1-4.8-2.1-9.1l-3.4,0.5c-0.1,1.6-0.2,4-0.5,7c-0.3,3.1-0.5,5.1-0.7,6.1l0.3,0.7
			c0.3,0.1,0.9,0.4,1.9,0.7c1,0.3,2.3,0.6,4.1,0.9c1.7,0.3,3.6,0.4,5.7,0.4c3.1,0,6.1-0.6,8.8-1.9c2.8-1.3,5-3,6.6-5.1
			c1.6-2.1,2.4-4.5,2.4-6.9c0-2.5-1-4.7-2.9-6.6C365.5,97.6,361.9,95.2,356.6,92.4z"/>
		<path style="fill:#00534C;" d="M414,76.4c-2.9-1.7-6.2-2.6-9.9-2.6c-1.4,0-5.2,2.1-11.3,6.4l-0.4-0.7c0.1-1,0.3-2.1,0.5-3.2
			c0.2-1.1,0.4-1.8,0.4-2.1l-0.6-0.8c-0.8,0.2-2.6,0.6-5.3,1.2c-2.8,0.6-5.6,1.2-8.4,1.6l-0.3,3.2l0.3,0.4h1.1c1.8,0,3,0.4,3.7,1.3
			c0.7,0.9,1.1,2.4,1.1,4.6V115l-0.1,9.2c-0.1,2-0.1,4.3-0.1,7c0,1.9-0.1,3.3-0.4,4.2c-0.3,0.9-0.7,1.6-1.4,2
			c-0.7,0.4-1.7,0.7-3.2,0.9l-0.5,3.8c0.6-0.1,1.9-0.2,3.9-0.4c2-0.2,4.2-0.3,6.5-0.3h9.3l0.8-3.7l-0.2-0.3l-3.3,0.1
			c-1.8,0-3-0.5-3.7-1.6c-0.6-1.1-0.9-3.1-0.9-6.1l-0.1-10.1c0.5,0.1,1.5,0.1,2.9,0.2c1.4,0.1,2.8,0.1,4.3,0.1
			c4.4,0,8.4-1.2,12.1-3.5c3.7-2.3,6.7-5.4,8.9-9.3c2.2-3.9,3.3-8.2,3.3-12.8c0-4-0.8-7.6-2.3-10.7C419.1,80.6,416.9,78.2,414,76.4z
			 M411.8,110.2c-2.5,3-5.9,4.4-10.3,4.4c-1.6,0-3.3-0.2-5.1-0.5c-1.8-0.4-3.3-0.8-4.6-1.3c0-9.8,0.3-19,0.8-27.6
			c1.7-1.4,3.5-2.6,5.4-3.5c1.9-0.9,3.5-1.3,4.8-1.3c2.3,0,4.5,0.8,6.5,2.3c2,1.6,3.5,3.7,4.7,6.4c1.1,2.7,1.7,5.6,1.7,8.9
			C415.5,103.2,414.3,107.3,411.8,110.2z"/>
		<path style="fill:#00534C;" d="M467.4,112.4c-1.1,0.5-2.2,0.7-3.2,0.7c-1.2,0-2.2-0.4-2.9-1.2c-0.7-0.8-1.1-1.9-1.1-3.3
			c0-2,0.4-6.5,1.1-13.7c0.5-4.4,0.7-7.4,0.7-8.8c0-4-1.2-7.1-3.6-9.3c-2.4-2.2-5.7-3.3-10-3.3c-1.4,0-3.6,0.7-6.7,2.1
			c-3.1,1.4-6.2,3-9.2,4.7l1.2,4.2l0.5,0.3c2-1.6,3.9-2.8,6-3.6c2-0.8,3.9-1.3,5.8-1.3c2.7,0,4.9,0.9,6.4,2.7
			c1.5,1.8,2.2,4.4,2.2,7.6l-0.1,4.3l-18.6,5.1c-1.6,0.5-2.8,1.4-3.8,2.8c-0.9,1.4-1.4,3.1-1.4,5c0,3.5,1.2,6.4,3.5,8.7
			c2.3,2.3,5.3,3.4,9,3.4c1,0,2.4-0.7,4.3-2.1c1.9-1.4,4.1-3.2,6.4-5.6l0.4,0.1c0.5,5.3,3.4,7.9,8.7,7.9c1.6-0.5,3.2-1.5,4.7-3.1
			c1.5-1.5,2.8-3.1,3.8-4.7l-1.4-1.6C469.4,111.3,468.5,111.9,467.4,112.4z M453.6,108.3c-1.4,1.4-2.9,2.5-4.5,3.4
			c-1.7,0.9-3.1,1.3-4.3,1.3c-2,0-3.6-0.6-4.8-1.9c-1.3-1.2-1.9-2.8-1.9-4.7c0-2.1,0.9-3.5,2.8-4.1l13.3-4L453.6,108.3z"/>
		<path style="fill:#00534C;" d="M507.8,89.6c0.1-2.3,0.3-4.4,0.6-6.4c0.3-2,0.6-3.6,0.9-4.8c0.3-1.2,0.5-2,0.5-2.3l-0.3-0.7
			c-0.3-0.1-0.9-0.3-2-0.6c-1.1-0.3-2.5-0.6-4.2-0.8c-1.7-0.3-3.5-0.4-5.3-0.4c-4.2,0-8.1,1.1-11.5,3.3c-3.4,2.2-6.1,5.2-8.1,9
			c-2,3.8-3,8-3,12.7c0,6.6,1.9,11.8,5.6,15.7c3.7,3.9,8.7,5.9,14.9,5.9c1.4,0,3.1-0.5,5.1-1.5c2-1,3.7-2,5.3-3c1.5-1,2.5-1.7,3-2.1
			l-1.1-3l-0.6-0.2c-0.3,0.2-0.9,0.5-2.1,1c-1.1,0.5-2.5,1-4.1,1.5c-1.6,0.5-3.3,0.7-4.9,0.7c-4.1,0-7.3-1.6-9.7-4.9
			c-2.4-3.3-3.6-7.8-3.6-13.4c0-5.2,1.1-9.2,3.2-12.1c2.1-2.8,5.2-4.3,9.2-4.3c2.4,0,4.3,0.7,5.8,2.2c1.5,1.5,2.2,3.4,2.2,5.8v3
			L507.8,89.6z"/>
		<path style="fill:#00534C;" d="M558.9,114.8c-1.2,0-2.1-0.4-2.6-1.3c-0.5-0.9-0.8-2.3-0.8-4.2c0-1.8,0.3-6.5,0.9-14.2
			c0.5-4.7,0.7-7.7,0.7-9c0-4-1.2-7.1-3.5-9.3c-2.3-2.2-5.6-3.3-9.9-3.3c-2.3,0-7.2,2.5-14.7,7.6c0.3-9.1,0.6-16.8,1-23.1
			c0.4-6.3,0.9-9.7,1.3-10.5l-0.6-1.3c-1.8,0.5-4.1,1.1-6.9,1.6c-2.8,0.6-5.3,1-7.5,1.2l-0.4,3.1l0.4,0.3h2.1c1.2,0,2.1,0.4,2.7,1.2
			c0.6,0.8,0.9,2.1,0.9,3.9v52c0,1.8-0.4,3.1-1.1,3.9c-0.7,0.8-2.1,1.3-4,1.5l-0.6,4c3.6-0.1,6.9-0.2,9.7-0.2c1.4,0,4.4,0.1,8.9,0.3
			l0.9-4.2l-0.2-0.4l-3.4,0.2c-1.3,0-2.2-0.4-2.7-1.2c-0.5-0.8-0.8-2.2-0.8-4.3c0-8.5,0.1-16.4,0.3-23.7c1.9-1.5,4-2.8,6.4-3.8
			c2.4-1,4.4-1.6,6-1.6c2.6,0,4.6,0.9,6,2.6c1.4,1.8,2.1,4.3,2.1,7.5l-0.6,19.3c0,1.7-0.4,3-1.3,4.1c-0.8,1-2.2,1.8-4.2,2.3l-0.4,4
			c4.1-0.8,7.5-1.2,10.1-1.2c1.5,0,4.4,0.1,8.7,0.3l0.8-4.2l-0.2-0.4L558.9,114.8z"/>
		<path style="fill:#00534C;" d="M608.4,84c-1.6-3.3-3.8-5.8-6.7-7.7c-2.9-1.8-6.2-2.7-9.8-2.7c-4.2,0-8.1,1.1-11.5,3.3
			c-3.5,2.2-6.2,5.2-8.2,9c-2,3.8-3,8-3,12.6c0,4.2,0.8,8,2.4,11.3c1.6,3.3,3.8,5.8,6.7,7.7c2.9,1.8,6.2,2.7,9.9,2.7
			c4.2,0,8.1-1.1,11.5-3.3c3.5-2.2,6.2-5.2,8.2-9c2-3.8,3-8,3-12.6C610.8,91,610,87.2,608.4,84z M599.6,110.8c-2.1,3-5,4.4-8.7,4.4
			c-2.7,0-5.1-0.8-7.2-2.5c-2.1-1.7-3.7-4-4.9-7c-1.2-3-1.8-6.4-1.8-10.3c0-5.1,1.1-9.2,3.2-12.2c2.1-3,5-4.5,8.7-4.5
			c2.7,0,5.1,0.8,7.2,2.5c2.1,1.7,3.8,4.1,4.9,7.1c1.2,3,1.8,6.5,1.8,10.3C602.8,103.8,601.7,107.9,599.6,110.8z"/>
	</g>
</g>
<g id="Sandoval">
	<g>
		<path style="fill:#008D6C;" d="M139,193.6c-9.8-6.2-24-14-42.6-23.5c-19.2-10-33.8-19.3-43.7-27.8c-9.9-8.5-14.8-18.4-14.8-29.9
			c0-11.8,5.1-21.6,15.3-29.5c10.2-7.9,23.2-11.8,38.9-11.8c19.2,0,32.6,2.9,40,8.6c7.5,5.7,11.2,16.2,11.2,31.4
			c0,5.5-0.1,10.3-0.4,14.4c-0.3,4.2-0.6,6.8-0.9,8l2.6,2.2l16.8-1.7c0.9-11.8,2-23.2,3.4-34.4c1.4-11.2,2.7-19.9,3.9-26.2
			c1.1-6.3,1.9-10.3,2.2-12l-1.3-2.6c-1.4-0.6-5-1.7-10.8-3.4c-5.7-1.7-13.5-3.4-23.2-4.9c-9.8-1.6-20.4-2.4-31.8-2.4
			c-18.4,0-35.1,3.5-50.1,10.5c-15.1,7-27,16.6-35.7,28.8C9.1,99.5,4.7,113,4.7,128c0,11.8,3.2,22.1,9.7,31
			c6.5,8.9,14.4,16.6,23.9,23c9.5,6.5,21.7,13.6,36.6,21.3c15.8,8.3,27.7,14.9,35.7,19.8c8,4.9,15,10.8,20.9,17.6
			c5.9,6.9,8.8,14.6,8.8,23.2c0,14.6-5.5,26.2-16.4,34.6c-10.9,8.5-25.4,12.7-43.5,12.7c-16.1,0-28-1.9-35.7-5.8
			c-7.7-3.9-13.1-11-15.9-21.3c-2.9-10.3-4.3-26.2-4.3-47.8l-19.4,2.2c0,12.3-0.4,24-1.1,35.1c-0.7,11-1.5,20-2.4,26.9
			c-0.9,6.9-1.4,11.2-1.7,12.9l2.2,4.3c0,0.3,3.2,1.7,9.7,4.3c6.5,2.6,14.7,4.9,24.7,7.1c10,2.2,21.1,3.2,33.1,3.2
			c20.7,0,39-3.6,55.1-10.8c16.1-7.2,28.6-17.1,37.7-29.9c9-12.8,13.6-27.2,13.6-43.2c0-12-3.7-22.7-11.2-31.8
			C157.4,207.4,148.7,199.8,139,193.6z"/>
		<path style="fill:#008D6C;" d="M266.9,314c-2.2,1-4.4,1.5-6.5,1.5c-2.5,0-4.5-0.8-5.9-2.4c-1.5-1.6-2.2-3.8-2.2-6.7
			c0-4,0.7-13.2,2.2-27.7c0.9-9,1.4-14.9,1.4-17.8c0-8.1-2.4-14.3-7.3-18.8c-4.9-4.5-11.6-6.7-20.2-6.7c-2.8,0-7.3,1.4-13.6,4.3
			c-6.3,2.8-12.5,6-18.7,9.6l2.4,8.5l1,0.6c4-3.2,8-5.6,12.1-7.3c4.1-1.7,8-2.6,11.7-2.6c5.5,0,9.8,1.9,12.9,5.5
			c3,3.7,4.6,8.8,4.6,15.4l-0.2,8.7l-37.6,10.3c-3.2,0.9-5.7,2.8-7.6,5.7c-1.9,2.9-2.9,6.3-2.9,10.1c0,7.1,2.4,13,7.1,17.6
			c4.8,4.6,10.8,6.9,18.2,6.9c2,0,4.9-1.4,8.8-4.2c3.9-2.8,8.2-6.5,13-11.3l0.8,0.2c1.1,10.7,6.9,16,17.6,16
			c3.3-1.1,6.5-3.1,9.6-6.2c3.1-3.1,5.6-6.3,7.6-9.6l-2.8-3.2C271,311.9,269.2,313,266.9,314z M239,305.8c-2.8,2.8-5.8,5-9.2,6.8
			c-3.4,1.8-6.3,2.7-8.8,2.7c-4,0-7.2-1.3-9.8-3.8c-2.6-2.5-3.9-5.7-3.9-9.5c0-4.4,1.9-7.1,5.7-8.3l26.9-8.1L239,305.8z"/>
		<path style="fill:#008D6C;" d="M367.9,318.7c-1.3,0.1-2.7,0.2-4.2,0.2c-2.5,0-4.3-0.9-5.3-2.7c-1.1-1.8-1.6-4.6-1.6-8.4
			c0-5.4,0.5-15,1.6-28.7c0.8-10.8,1.2-16.9,1.2-18.2c0-7.8-2.4-14-7.3-18.6c-4.9-4.6-11.5-6.9-19.8-6.9c-4.4,0-14.1,5-29.1,15
			l-0.4-0.6c0.1-2.8,0.5-5.4,1-8c0.5-2.6,0.9-4.3,1.2-5l-1.2-1.6c-1.6,0.4-5.2,1.2-10.8,2.5c-5.6,1.3-11.3,2.3-16.9,3.3l-0.6,6.5
			l0.6,0.8h2.2c3.6,0,6.1,0.9,7.5,2.7c1.5,1.8,2.2,4.9,2.2,9.4v48.3c0,3.7-0.8,6.4-2.4,8.1c-1.6,1.7-4.3,2.9-8.1,3.6l-1,8.1
			c1.3-0.1,4.1-0.4,8.2-0.7c4.2-0.3,8-0.5,11.4-0.5c4,0,7.7,0.1,11.1,0.2c3.4,0.1,5.7,0.3,6.9,0.4l1.8-8.5l-0.4-0.8
			c-0.5,0-1.5,0.1-2.8,0.2c-1.3,0.1-2.7,0.2-4.2,0.2c-2.6,0-4.5-0.8-5.5-2.5c-1.1-1.6-1.6-4.5-1.6-8.6c0-5.1,0.6-21.4,1.8-48.7
			c3.3-2.5,7.1-4.9,11.5-7c4.4-2.2,8.6-3.3,12.9-3.3c5.3,0,9.3,1.8,12.2,5.3c2.8,3.6,4.3,8.6,4.3,15.2l-0.8,39.2
			c0,3.4-0.9,6.2-2.6,8.2c-1.7,2-4.6,3.6-8.5,4.7l-0.8,8.1c1.3-0.3,4.2-0.7,8.6-1.4c4.4-0.7,8.3-1,11.8-1c4,0,7.6,0.1,10.9,0.2
			c3.3,0.1,5.5,0.3,6.7,0.4l1.6-8.5l-0.4-0.8C370.2,318.5,369.3,318.5,367.9,318.7z"/>
		<path style="fill:#008D6C;" d="M477.5,312.1c-1.1,0.8-2.6,1.6-4.4,2.3c-1.8,0.7-3.6,1.1-5.4,1.1c-2.5,0-4.5-0.8-5.9-2.4
			c-1.5-1.6-2.2-3.8-2.2-6.7c0-28.9,0.6-56.2,1.7-81.8c1.1-25.6,2.4-39.5,3.9-41.8l-1.2-2.6c-1.7,0.4-5.6,1.3-11.7,2.6
			c-6.1,1.3-11.9,2.4-17.6,3.2l-0.8,7.3c0.3-0.1,0.9-0.3,2-0.5c1.1-0.2,2-0.3,3-0.3c4.9,0,7.3,3.6,7.3,10.7v32.9
			c-4.9-0.5-9.4-0.8-13.7-0.8c-8.8,0-17.1,2.3-24.7,7c-7.6,4.7-13.6,11-18,18.9c-4.4,7.9-6.6,16.6-6.6,25.9c0,8.2,1.6,15.4,4.8,21.8
			c3.2,6.3,7.7,11.3,13.5,14.8c5.8,3.5,12.5,5.2,20,5.2c2.8,0,11-4.7,24.8-14.1l1.4,0.6c1.5,9.4,7.3,14.1,17.6,14.1
			c2.8-0.8,5.4-2.4,8-4.8c2.6-2.4,4.7-4.7,6.2-6.8c1.6-2.2,2.6-3.6,3-4.3l-2.8-3.2C479.3,310.8,478.7,311.4,477.5,312.1z
			 M446.2,305.6c-0.7,0.5-2.1,1.6-4.4,3.3c-2.2,1.7-5,3.3-8.2,4.9c-3.2,1.6-6.2,2.4-9,2.4c-4.8,0-9.1-1.6-13.2-4.8
			c-4-3.2-7.2-7.5-9.5-12.9c-2.3-5.4-3.5-11.4-3.5-18c0-10.4,2.5-18.6,7.6-24.7c5.1-6,12-9,20.9-9c3.6,0,6.8,0.3,9.6,1
			c2.8,0.7,5.1,1.4,6.6,2.1c1.6,0.7,2.6,1.2,3,1.5V305.6z"/>
		<path style="fill:#008D6C;" d="M555.4,240.9c-5.9-3.7-12.5-5.5-19.9-5.5c-8.6,0-16.4,2.2-23.4,6.6c-7,4.4-12.5,10.5-16.5,18.2
			c-4,7.7-6,16.2-6,25.4c0,8.6,1.6,16.2,4.9,22.9c3.2,6.7,7.8,11.9,13.6,15.5c5.8,3.7,12.5,5.5,20,5.5c8.6,0,16.4-2.2,23.4-6.6
			c7-4.4,12.5-10.5,16.5-18.2c4-7.7,6-16.2,6-25.4c0-8.6-1.6-16.2-4.9-22.9C565.8,249.7,561.2,244.6,555.4,240.9z M551.1,310.9
			c-4.4,6-10.2,9-17.6,9c-5.5,0-10.4-1.7-14.7-5c-4.2-3.4-7.5-8.1-9.9-14.2c-2.4-6.1-3.6-13-3.6-20.8c0-10.4,2.2-18.7,6.5-24.8
			c4.4-6.1,10.2-9.1,17.6-9.1c5.4,0,10.3,1.7,14.6,5.1c4.3,3.4,7.6,8.2,10,14.4c2.4,6.1,3.6,13.1,3.6,20.9
			C557.6,296.7,555.5,304.9,551.1,310.9z"/>
		<path style="fill:#008D6C;" d="M629.9,237.5l-1,6.1l0.8,1.2h7.5c3.2,0,5.4,0.4,6.6,1.1c1.3,0.7,1.9,1.9,1.9,3.7
			c0,1.6-1.2,5.5-3.6,11.7c-2.4,6.2-5.3,13.7-8.9,22.4l-10.9,26.5h-0.8c-1.7-5.8-5-16.9-9.7-33.4c-4.8-16.4-7.1-25.8-7.1-28.2
			c0-1.8,0.8-3.1,2.5-3.9c1.6-0.7,4.7-1.2,9.2-1.3l1.2-6.1l-0.4-1c-1.3,0.1-4.4,0.4-9.1,0.8c-4.8,0.4-9.6,0.6-14.7,0.6l-16.4-0.2
			l-1.2,6.5l0.4,0.8c6.7,0.3,11.2,3.6,13.5,9.9c2.4,7.1,6.5,20,12.4,38.5c5.9,18.5,9.8,31,11.8,37.3l11.1-3.4l28.3-67.5
			c2.5-5.8,4.6-9.6,6.1-11.5c1.6-1.8,3.8-3,6.5-3.4l1.4-7.3l-16.2,0.2L629.9,237.5z"/>
		<path style="fill:#008D6C;" d="M745.5,314c-2.2,1-4.4,1.5-6.5,1.5c-2.5,0-4.5-0.8-5.9-2.4c-1.5-1.6-2.2-3.8-2.2-6.7
			c0-4,0.7-13.2,2.2-27.7c0.9-9,1.4-14.9,1.4-17.8c0-8.1-2.4-14.3-7.3-18.8c-4.9-4.5-11.6-6.7-20.2-6.7c-2.8,0-7.3,1.4-13.6,4.3
			c-6.3,2.8-12.5,6-18.7,9.6l2.4,8.5l1,0.6c4-3.2,8-5.6,12.1-7.3c4.1-1.7,8-2.6,11.7-2.6c5.5,0,9.8,1.9,12.9,5.5
			c3,3.7,4.6,8.8,4.6,15.4l-0.2,8.7l-37.6,10.3c-3.2,0.9-5.7,2.8-7.6,5.7c-1.9,2.9-2.9,6.3-2.9,10.1c0,7.1,2.4,13,7.1,17.6
			c4.8,4.6,10.8,6.9,18.2,6.9c2,0,4.9-1.4,8.8-4.2c3.9-2.8,8.2-6.5,13-11.3l0.8,0.2c1.1,10.7,6.9,16,17.6,16
			c3.3-1.1,6.5-3.1,9.6-6.2c3.1-3.1,5.6-6.3,7.6-9.6l-2.8-3.2C749.6,311.9,747.8,313,745.5,314z M717.6,305.8
			c-2.8,2.8-5.8,5-9.2,6.8c-3.4,1.8-6.3,2.7-8.8,2.7c-4,0-7.2-1.3-9.8-3.8c-2.6-2.5-3.9-5.7-3.9-9.5c0-4.4,1.9-7.1,5.7-8.3l26.9-8.1
			L717.6,305.8z"/>
		<path style="fill:#008D6C;" d="M799.6,318.5l-6.9,0.4c-2.5,0-4.3-0.9-5.3-2.6c-1.1-1.7-1.6-4.6-1.6-8.5c0-29,0.6-56.6,1.7-82.6
			c1.1-26,2.4-40.1,3.9-42.4l-1.2-2.6c-2.3,0.6-4.7,1.2-7.2,1.8l-0.8-21.2l-0.8-11.7c0,0-27-60.8-41.8-76.8
			c-18.5-20.1-93.1-61.7-93.1-61.7S724.9,50,744,70.1c15,15.7,41.1,76.5,41.1,76.5s10.8-8.2,12-11.8c0.7-2.2-2.2-16.4-2.2-16.4
			l-6.7,15.8L787,91.7c0,0-9.2-6.5-11.6-9.3c-6.2-7.2-18.8-33.2-18.8-33.2l-7.5,5.8l-0.8-11.7c0,0-49.3-31.8-69.3-37.3
			C658.6,0.5,589.6,0,589.6,0s42.3,36,60.8,40c7.3,1.6,26.6-2.4,26.6-2.4l-31.4,10.1c0,0,26.1,31.2,38.2,36
			c10.3,4.1,39.2-0.8,39.2-0.8l-51.7,11.7c0,0,30,33.5,43.9,40.4c7.8,3.8,36.2,7.4,36.2,7.4l-30.1,1.8l29.5,10.6l-14,2.6
			c0,0,29.9,5.9,36.6,12.5c1.8,1.8,3.7,7,5.3,13c-5.5,1.1-11.5,2.2-17.9,3.1l-0.8,6.7l0.6,0.4c2.4-0.3,3.9-0.4,4.6-0.4
			c2.9,0,4.8,0.7,5.7,2.2c0.9,1.5,1.4,4.2,1.4,8.3v97.2c0,5.3-0.2,9-0.5,11.3c-0.3,2.2-1.3,4.2-2.8,5.7c-1.5,1.6-4.1,2.9-7.8,4
			l-0.8,8.1c9.1-1.6,15.9-2.4,20.4-2.4c3,0,8.9,0.2,17.6,0.6l1.6-8.5L799.6,318.5z"/>
	</g>
</g>
<g id="Abogados">
	<g>
		<path d="M290.4,379.7l-16.6,43.5h3.7l1-3.8l3.5-9.3l9.3-0.1l10.3,0.1l3.3,9.4l1,3.7h3.7l-15.2-43.5H290.4z M291.7,407.1l-8.5-0.1
			l8.8-23.2h0.4l8.1,23.2L291.7,407.1z"/>
		<path d="M330.7,391.9c-3.4,0.5-6.5,2-9.3,4.8h-0.3l0.1-21.2l-3.5,0.3l0.2,34.3l-0.2,13.1l0.7,0.4l2.5-1.2c2.3,0.9,4.6,1.3,6.9,1.3
			c4.6,0,8.2-1.5,10.8-4.4c2.6-2.9,3.9-7.1,3.9-12.4c0-4.7-1-8.4-3.1-11C337.4,393.2,334.4,391.9,330.7,391.9z M336.2,417.5
			c-2,2.3-4.7,3.5-8.2,3.5c-2.1,0-4.4-0.6-6.9-1.9l-0.1-9.3l0.1-9.7c2.9-3.4,6-5.2,9.3-5.2c2.8,0,5,1.1,6.5,3.3
			c1.5,2.2,2.3,5.2,2.3,9.2C339.2,411.7,338.2,415.1,336.2,417.5z"/>
		<path d="M362.8,391.8c-4.3,0-7.6,1.4-10,4.3c-2.4,2.9-3.6,6.9-3.6,12c0,4.9,1.1,8.7,3.4,11.4c2.3,2.7,5.4,4.1,9.5,4.1
			c4.3,0,7.6-1.4,10-4.3c2.4-2.9,3.6-6.9,3.6-12c0-4.9-1.1-8.7-3.4-11.5C370.1,393.1,366.9,391.8,362.8,391.8z M369.8,417.6
			c-1.8,2.2-4.3,3.4-7.5,3.4c-3.1,0-5.5-1.2-7.2-3.5c-1.7-2.3-2.6-5.7-2.6-10c0-4.1,0.9-7.3,2.7-9.6c1.8-2.3,4.2-3.4,7.4-3.4
			c3.1,0,5.5,1.2,7.2,3.5c1.7,2.4,2.6,5.7,2.6,10.1C372.5,412.2,371.6,415.3,369.8,417.6z"/>
		<path d="M401.5,393.3c-1.7-1-3.8-1.4-6.3-1.4c-3.5,0-6.3,1-8.4,2.9c-2.1,1.9-3.1,4.5-3.1,7.9c0,4,1.5,6.9,4.4,8.7v0.2
			c-2.1,1.4-3.5,2.8-4.1,4.1c0,1.4,0.5,2.4,1.5,3.2c1,0.8,2.3,1.4,4,1.9v0.3c-1.8,1-3.2,2.1-4.2,3.2c-1,1.1-1.8,2.3-2.2,3.6
			c0,2.5,1,4.5,3,6c2,1.6,4.7,2.3,8.1,2.3c2.5,0,4.9-0.4,7.1-1.3c2.2-0.9,3.9-2.1,5.2-3.6c1.3-1.5,1.9-3.1,1.9-4.9
			c0-1.7-0.6-3.1-1.8-4.1c-1.2-1-2.7-1.7-4.4-2.2c-1.7-0.5-3.9-0.9-6.6-1.3c-2.8-0.4-4.8-0.8-6.1-1.3c-1.3-0.4-1.9-1.1-1.9-2.1
			c0-0.5,0.2-0.9,0.5-1.4c0.4-0.5,1.1-1.1,2.1-1.9c1.5,0.5,3.1,0.7,4.8,0.7c3.5,0,6.3-1,8.4-2.9c2.1-1.9,3.1-4.5,3.1-7.8
			c0-2.6-0.7-4.8-2-6.5l0.1-0.2c2.5-0.5,4.7-1,6.8-1.5v-2.6l-0.4-0.3C408.4,391.9,405.3,392.6,401.5,393.3z M395,421.7
			c2.3,0.3,4.1,0.6,5.4,1c1.3,0.3,2.5,0.8,3.4,1.5c0.9,0.7,1.4,1.6,1.4,2.8c0,1.2-0.5,2.3-1.4,3.3c-1,1-2.2,1.9-3.8,2.5
			c-1.6,0.6-3.4,0.9-5.3,0.9c-2.6,0-4.6-0.5-6.1-1.5c-1.5-1-2.2-2.3-2.2-3.8c0-1.3,0.6-2.5,1.7-3.6c1.1-1.1,2.7-2.3,4.8-3.4
			L395,421.7z M401,408.3c-1.5,1.4-3.4,2.1-6,2.1c-2.5,0-4.5-0.7-5.9-2.1c-1.4-1.4-2.1-3.3-2.1-5.8c0-2.5,0.7-4.5,2.2-5.9
			c1.5-1.4,3.5-2.1,6.1-2.1c2.5,0,4.5,0.7,5.9,2c1.4,1.4,2.1,3.3,2.1,5.8C403.2,404.8,402.4,406.8,401,408.3z"/>
		<path d="M436.4,420.5c-0.8,0-1.4-0.2-1.7-0.7c-0.3-0.5-0.5-1.3-0.5-2.5c0-0.7,0.1-3.6,0.4-8.8c0-1.8,0.1-3.4,0.2-5
			c0.1-1.6,0.1-2.8,0.1-3.8c0-2.5-0.8-4.4-2.3-5.9c-1.5-1.4-3.7-2.1-6.5-2.1c-3.6,0-7.2,1.5-11,4.4l0.5,2.5l0.4,0.2
			c3.4-2.9,6.6-4.4,9.5-4.4c1.9,0,3.4,0.5,4.4,1.5c1,1,1.6,2.5,1.6,4.5l-0.1,5.5l-11.3,2.7c-4,0.9-6,3.2-6,6.9c0,2.5,0.8,4.5,2.3,6
			c1.5,1.4,3.7,2.1,6.4,2.1c2.8-0.5,5.4-2.3,8-5.2h0.3c0.1,3.3,1.6,5,4.3,5.1c1.2,0,2.4-0.4,3.5-1.1l0.4-2.2l-0.5-0.3
			C438.1,420.3,437.3,420.5,436.4,420.5z M431.2,415.1c-1.4,1.8-2.8,3.1-4.2,4.1c-1.4,1-2.8,1.4-4.2,1.4c-1.7,0-3-0.5-3.9-1.5
			c-1-1-1.4-2.3-1.4-4c0-2.2,1.2-3.5,3.5-4.1l10.5-2.5L431.2,415.1z"/>
		<path d="M471.6,420.5c-0.8,0-1.4-0.2-1.7-0.7c-0.3-0.5-0.5-1.3-0.5-2.5l-0.1-7.6l0.3-34.3l-3.5,0.3v16.9c-2.5-0.6-4.7-0.9-6.6-0.9
			c-4.7,0-8.3,1.4-10.9,4.3c-2.6,2.8-3.9,6.8-3.9,12c0,4.9,1.1,8.7,3.4,11.4c2.3,2.7,5.4,4.1,9.5,4.1c1.6-0.3,3.1-0.9,4.4-1.6
			c1.3-0.8,2.7-1.9,4.1-3.3h0.3c0.2,3.1,1.6,4.7,4.2,4.8c1.2,0,2.4-0.4,3.5-1.1l0.4-2.2l-0.5-0.3
			C473.2,420.3,472.3,420.5,471.6,420.5z M466.1,415.5c-1.4,1.7-2.7,3-4.2,3.8c-1.4,0.8-2.9,1.2-4.5,1.2c-3,0-5.3-1.1-6.9-3.4
			c-1.7-2.3-2.5-5.4-2.5-9.5c0-4.2,1-7.5,2.9-9.7c2-2.3,4.7-3.4,8.2-3.4c2.2,0,4.5,0.5,6.9,1.5l0.1,14.1L466.1,415.5z"/>
		<path d="M493.1,391.8c-4.3,0-7.6,1.4-10,4.3c-2.4,2.9-3.6,6.9-3.6,12c0,4.9,1.1,8.7,3.4,11.4c2.3,2.7,5.4,4.1,9.5,4.1
			c4.3,0,7.6-1.4,10-4.3c2.4-2.9,3.6-6.9,3.6-12c0-4.9-1.1-8.7-3.4-11.5C500.4,393.1,497.2,391.8,493.1,391.8z M500.1,417.6
			c-1.8,2.2-4.3,3.4-7.5,3.4c-3.1,0-5.5-1.2-7.2-3.5c-1.7-2.3-2.6-5.7-2.6-10c0-4.1,0.9-7.3,2.7-9.6c1.8-2.3,4.2-3.4,7.4-3.4
			c3.1,0,5.5,1.2,7.2,3.5c1.7,2.4,2.6,5.7,2.6,10.1C502.8,412.2,501.9,415.3,500.1,417.6z"/>
		<path d="M529.9,410.9c-0.7-1-1.6-1.9-2.7-2.5c-1-0.6-2.4-1.4-4.3-2.2c-2.2-1-3.9-1.9-5-2.8c-1.1-0.8-1.6-2-1.6-3.4
			c0-1.5,0.6-2.8,1.8-3.8c1.2-1,2.7-1.6,4.6-1.6c2,0,4.1,0.6,6.2,1.8l0.6-0.1l0.5-2.9c-2.3-1-4.6-1.4-7-1.4c-3,0-5.4,0.8-7.2,2.3
			c-1.8,1.6-2.7,3.6-2.7,6c0,1.5,0.4,2.9,1.1,3.9c0.7,1.1,1.7,2,2.8,2.7c1.1,0.7,2.5,1.4,4.3,2.2c2.2,1,3.9,2,4.9,2.8
			c1,0.8,1.6,2,1.6,3.4c0,1.5-0.6,2.9-1.9,4c-1.3,1.1-3,1.7-5,1.7c-1.3,0-2.6-0.2-4-0.7c-1.4-0.5-2.6-1.2-3.8-2.2l-0.5,0.3l-0.5,3.1
			c2.6,1.5,5.5,2.2,8.5,2.2c2.1,0,3.9-0.4,5.5-1.2c1.6-0.8,2.8-1.9,3.6-3.3c0.8-1.4,1.3-2.8,1.3-4.4
			C531,413.2,530.7,411.9,529.9,410.9z"/>
	</g>
</g>
</svg>
